<svg width="42" height="42" viewBox="0 0 42 42" fill="none" xmlns="http://www.w3.org/2000/svg">
<path d="M20.1874 41.9999H21.816C21.8799 41.957 21.9536 41.9682 22.0239 41.9647C23.8783 41.8828 25.695 41.5747 27.4513 40.9745C33.9291 38.762 38.3709 34.4343 40.785 28.0357C41.4236 26.3418 41.7776 24.5755 41.9263 22.7688C41.9499 22.4788 41.9289 22.1845 42.0017 21.8987V20.0539C41.9848 19.9708 41.9721 19.8869 41.9636 19.8025C41.8877 18.2565 41.6308 16.7248 41.1981 15.2388C39.8553 10.637 37.2566 6.91081 33.402 4.06029C30.5134 1.92627 27.2704 0.647317 23.712 0.175378C22.2387 -0.0188441 20.7487 -0.0526495 19.2681 0.074554C17.6567 0.210558 16.0766 0.500586 14.5457 1.01843C8.58714 3.03347 4.31571 6.91109 1.73142 12.6513C0.794136 14.7326 0.266994 16.9296 0.0771368 19.207C0.0522797 19.5039 0.072849 19.8055 -8.12288e-06 20.0981V21.9C0.012849 21.9901 0.0334207 22.0802 0.0377064 22.1707C0.11439 23.7159 0.370546 25.2468 0.800995 26.7327C2.03871 31.0142 4.391 34.5564 7.85785 37.3595C11.1919 40.0446 14.9973 41.566 19.2741 41.9235C19.5784 41.9493 19.8874 41.9227 20.1874 41.9999ZM34.3851 22.3393H38.4994C38.814 22.3393 38.8144 22.3393 38.7784 22.6611C38.7073 23.363 38.5983 24.0605 38.4519 24.7505C37.5119 28.9971 35.3261 32.4563 31.8947 35.128C29.0949 37.3075 25.9033 38.5204 22.3599 38.7929C20.292 38.952 18.2456 38.7959 16.2596 38.2064C10.4216 36.4761 6.40799 32.7469 4.21671 27.0673C3.66299 25.6313 3.36471 24.1293 3.21685 22.5981C3.20271 22.4496 3.18128 22.3333 3.41485 22.3338C6.21485 22.3424 9.01485 22.3424 11.8149 22.3338C11.9614 22.3338 12.0163 22.384 12.0369 22.5187C12.0673 22.7156 12.1024 22.9121 12.1496 23.1056C13.3101 27.8679 17.9353 30.8385 22.7537 29.9135C26.4369 29.2065 29.3357 26.2419 29.9601 22.5406C29.985 22.393 30.0386 22.3316 30.2057 22.3325C31.5999 22.3428 32.9927 22.3393 34.3851 22.3393ZM27.2979 20.9956C27.2961 24.4554 24.462 27.2904 21.0017 27.2904C17.5414 27.2904 14.7073 24.4588 14.7043 20.9982C14.7013 17.5376 17.5341 14.7081 21.0017 14.7064C24.4693 14.7047 27.2996 17.5367 27.2979 20.9956Z" fill="white"/>
</svg>
